<?xml version="1.0" encoding="UTF-8"?>
<svg id="Capa_1" data-name="Capa 1" xmlns="http://www.w3.org/2000/svg" viewBox="0 0 365.14 619.04">
  <defs>
    <style>
      .cls-1 {
        fill: #bf2c1d;
      }

      .cls-2 {
        fill: #c7a16c;
      }
    </style>
  </defs>
  <path class="cls-2" d="M89.5,330.19l44.49-128-66.42,21.03-3.58-10.02,222.75-68.78c7.12-1.48,13.98,8.13,18.22,13.31,16.75,20.42,24.29,45.54,24.11,71.99-.04,5.52-1.67,10.93-1.12,17.02,1.73,18.98,28.94,38.56,35.91,54.08,7.25,16.14-18.87,17.91-20.71,24.08s12.4,17.78-2.04,24.77c10.64,12.38-2.7,15.74-4.06,23.07-1.92,10.27,5.42,18.75-.32,31.69-12.58,28.35-55.02,2.43-77.01,7.99-26.22,6.62-26.62,56.43-29.81,77.19-.37,2.39-2.58,5.92-2.56,7.09.02,1.33,6.48,10.78,7.83,12.81,21.52,32.5,47.66,63.64,68.63,96.37,2.42,3.78,4.99,7.36,6.19,11.79l-2.33,1.38c-52.73-28.98-105.67-57.61-158.35-86.68-30.65-16.91-64.81-34.21-94.07-52.15-3.52-2.16-14.87-6.53-15.27-10.55l46.01-130.47h-32v-9h35.5ZM285,156.2l-119.06,36.57.22,335.76,112.32,62.68v-2.99c-51.47-77.42-127.68-144.01-90.51-246.54,12.37-34.11,38.74-63.39,58.04-93.96,18.05-28.59,31.39-58.34,38.98-91.51ZM348.42,297.77c-9.33-12.49-31.5-36.49-31.5-52.09,0-2.37,1.1-4.57,1.12-6.95.17-28.41-2.67-55.67-24.03-76.54-5.59,23.44-14.19,45.94-24.98,67.43,10.08,4.17,19.02,9.46,25.95,18.09,23.22,28.9,16.43,91.4-22.97,103.97l45.15,55.37c18.02-2.57,7.93-22.25,10.08-35.12.71-4.26,5.7-9.9,5.7-12.23,0-2.71-4.61-7.57-3.79-10.8l6.88-7.39c-.57-6.77-4.93-10.36-3.8-17.57,1.73-10.98,13.62-11.68,21.35-16.73,1.54-2.39-3.85-7.67-5.16-9.43ZM156,196.19l-9.83,3.67-43.48,124.52-.68,5.82h54v-134ZM222,302.69v41.5c27.66,2.12,57.91,5.14,70.48-25.02,8.71-20.88,6.29-45.23-4.61-64.35-4.08-7.17-16.14-14.23-24.28-15.46l-41.59,63.34ZM212,432.19v-114c-4.19,5.46-8.06,13.21-10.86,19.64-21.88,50.22-13.56,101.97,16.88,146.35l1.99-.49c1.83-25.58,5.75-69.84,34.46-79.54,15.66-5.29,29.84-1.07,45.43,1.65,1.47.26,2.44,1.24,2.09-1.1l-41-50.03-38.98-.49v78h-10ZM156,339.19h-57.5l-46.43,127.92,103.93,57.08v-185Z"/>
  <path class="cls-2" d="M290.87,128.06l-224.18,68.2L19.9,111.8c-2.29-3.13-7.01-.98-10.37-1.63C5.56,109.41-.48,98.16.03,93.78c2.05-17.45,32.56-21.28,29.93,5.85-.22,2.31-2.99,4.11-1.04,6.07l47.76,30.23c5.26.27,13.96-14.43,11.87-17.74-.79-1.25-4.56-2.79-6.38-5.69-9.49-15.18,10.23-29.33,21.83-18.83,6.62,5.99,3.01,12.86,2.12,20.38,10.56,6.28,21.58,5.76,24.6-7.65,3.32-14.74,6.2-38.51,7.27-53.73.18-2.63-.11-5.29.07-7.92-6.39-1.41-13.55-5.25-14.83-12.3-3.77-20.84,23-25.2,28.81-8.82,3.23,9.1-2.44,11.28-2.89,17.31-.33,4.38,5.96,7.3,7.88,9.98,8.04,11.22,15.63,23.2,24.99,33.74,5.83,6.56,13.64,14.52,22.47,7.52,2.89-2.29,7.31-9.69,6.57-13.31-.08-.4-4.68-3.08-5.93-5.32-8.84-15.91,13.9-30.88,23.7-15.69,5.12,7.94-.77,16.13.62,18.32,9.4,7.23,16.14,13.91,23.42.39s13.07-31.37,20.13-45.94l-.07-1.37c-13.06-3.51-13.57-24.07-.67-28.3,16.01-5.25,27.56,12.25,16.73,24.73-2.32,2.67-6.02,2.72-6.02,7.98,0,11.88,3.05,26.81,4.02,39.04.64,8.18.37,16.8,1.02,24.98.39,4.83,4.48,27.88,2.86,30.38ZM279.97,121.15l-5.46-67.96c-6.61,11.89-10.4,38.01-26.24,40.75-10.4,1.8-18.01-2.58-25.75-8.76-4.66,13.73-24.36,27.58-38.02,18-11.31-7.93-23.03-29.9-33.68-40.32-.87-.85-.83-2.2-2.81-1.68-2.9,16.68-3.51,35.52-7.67,51.83-.59,2.3-.97,4.64-2.32,6.68-6.16,9.26-29.84,12.11-37.51,3.51-4.05,9-12.5,24-24,24-6.32,0-25.07-12.9-31.01-17.02-.76-.52-1.64-2.08-2.49-.51,9.38,15.37,16.63,32.85,25.83,48.17,1.07,1.78,2.45,5.1,4.66,5.37l206.47-62.07Z"/>
  <path class="cls-1" d="M313.47,479.48s3.96-4.46,5.32-5.6c16.36-13.56,38.7,2.79,33.84,23.31-3.39,14.3-23.94,34-36.44,41.37-3.13,1.85-3.23,1.61-6.14-.29-10.49-6.86-28.92-23.5-33.89-34.88-8-18.28,3.67-37.87,24.55-33.59,4.66.95,8.13,4.52,11.3,7.8.39.41,1.46,1.88,1.46,1.88Z"/>
</svg>